<svg xmlns="http://www.w3.org/2000/svg" xmlns:xlink="http://www.w3.org/1999/xlink" viewBox="0 0 241.5 251.52"><defs><style>.a0b6326b-6684-40d9-a989-75429fb72abc{fill:none;}.a658e417-ce16-4d90-8646-676d7bb27073{fill:#b22e43;}.f02c0086-81fa-4f1b-abf1-248a6e04c1ca{clip-path:url(#a657997d-b8e5-4af5-b098-b63aca5f53de);}</style><clipPath id="a657997d-b8e5-4af5-b098-b63aca5f53de"><circle class="a0b6326b-6684-40d9-a989-75429fb72abc" cx="120.68" cy="120.93" r="110"/></clipPath></defs><g id="f6481362-24ae-4ba8-b2e7-1b8172acd8fa" data-name="Layer 2"><g id="a1b10d15-fd80-48f1-a9b3-add5225e7a62" data-name="Layer 4"><path class="a658e417-ce16-4d90-8646-676d7bb27073" d="M0,120.76a119.32,119.32,0,0,0,229.57,45.37A118.89,118.89,0,0,0,203.91,36.85a120.26,120.26,0,0,0-38.4-26A119.12,119.12,0,0,0,35.34,36.1,119.75,119.75,0,0,0,0,120.76Zm0,0a120,120,0,0,1,35-85A121.75,121.75,0,0,1,73.91,9.46,120.64,120.64,0,0,1,205.72,35,120.37,120.37,0,0,1,232.14,167.2a120.8,120.8,0,0,1-65.84,65.35A120.65,120.65,0,0,1,0,120.76Z"/><path class="a658e417-ce16-4d90-8646-676d7bb27073" d="M10,120.76A109.95,109.95,0,0,1,42.06,42.82a110.75,110.75,0,0,1,156.63-.75,110.77,110.77,0,0,1-121,180.76A111.33,111.33,0,0,1,18.26,162.9,110.18,110.18,0,0,1,10,120.76Zm0,0a109.22,109.22,0,0,0,186.87,76.87A109.25,109.25,0,0,0,42.37,43.13,109.73,109.73,0,0,0,10,120.76Z"/><g class="f02c0086-81fa-4f1b-abf1-248a6e04c1ca"><image width="2538" height="3819" transform="translate(64.13 22.44) scale(0.06)" xlink:href="../../../WebDevelopment/Rosica%20Kirkova/images/rossi-m.png"/></g></g></g></svg>