<svg width="1438" height="728" viewBox="0 0 1438 728" fill="none" xmlns="http://www.w3.org/2000/svg">
<g clip-path="url(#clip0_400_681)">
<path d="M1434.38 0.615479H1331.15C1318.48 0.618778 1306.03 3.97016 1295.05 10.334C1284.07 16.6978 1274.95 25.8506 1268.6 36.8757L1030.98 449.227C1024.56 460.325 1021.19 472.933 1021.19 485.769C1021.19 498.606 1024.56 511.213 1030.98 522.312L1129.18 691.56C1135.52 702.485 1144.59 711.558 1155.48 717.881C1166.38 724.204 1178.72 727.56 1191.3 727.615L1295.42 728.051C1296.06 728.057 1296.68 727.893 1297.24 727.577C1297.79 727.26 1298.25 726.803 1298.56 726.25C1298.88 725.698 1299.05 725.071 1299.05 724.432C1299.05 723.794 1298.88 723.167 1298.56 722.615L1183.6 522.107C1177.28 511.07 1173.95 498.557 1173.95 485.821C1173.95 473.084 1177.28 460.571 1183.6 449.535L1437.52 6.07759C1437.83 5.52398 1438 4.89599 1438 4.25673C1438 3.61748 1437.83 2.9895 1437.52 2.43591C1437.2 1.88233 1436.74 1.42266 1436.19 1.1031C1435.64 0.783545 1435.01 0.615369 1434.38 0.615479V0.615479Z" fill="#B22E42"/>
<path d="M168.867 113.243C172.769 108.601 174.758 101.985 174.86 93.3433V88.6762C174.86 79.7265 172.922 72.9565 169.046 68.315C166.93 65.9456 164.306 64.0909 161.373 62.8914C158.439 61.6919 155.273 61.1789 152.113 61.3912H142.805V120.218H151.96C155.119 120.414 158.281 119.889 161.21 118.681C164.138 117.473 166.756 115.614 168.867 113.243V113.243Z" fill="#B22E42"/>
<path d="M568.519 128.475H601.313L568.519 76.9312V128.475Z" fill="#B22E42"/>
<path d="M1206.96 5.37465e-08L1102.41 0.461587C1089.76 0.510536 1077.35 3.89717 1066.41 10.2829C1055.47 16.6686 1046.39 25.8296 1040.08 36.85L748.096 546.571C744.923 552.087 740.362 556.666 734.872 559.85C729.383 563.034 723.157 564.71 716.819 564.71C710.482 564.71 704.256 563.034 698.766 559.85C693.277 556.666 688.716 552.087 685.542 546.571L674.271 527.107C671.667 522.558 670.08 517.494 669.618 512.265C669.157 507.037 669.833 501.771 671.6 496.832C673.366 491.893 676.181 487.4 679.848 483.665C683.515 479.93 687.947 477.043 692.836 475.204C786.399 439.072 853.109 347.985 851.248 241.59C849.987 177.187 823.674 115.846 777.954 70.7287C732.234 25.6112 670.75 0.311052 606.693 0.256437V0.256437C606.693 0.256437 67.9343 0.153862 3.59537 0.230794C2.96024 0.237041 2.33791 0.41117 1.79086 0.735706C1.2438 1.06024 0.791248 1.52377 0.478628 2.07976C0.166008 2.63575 0.00431521 3.26465 0.0097775 3.90335C0.0152398 4.54204 0.187665 5.16805 0.509748 5.71855L50.7977 92.3174C57.1463 103.313 66.2525 112.441 77.2068 118.79C88.1612 125.14 100.58 128.488 113.224 128.501H123.883V46.6972H152.113C159.645 46.5396 167.094 48.3041 173.763 51.826C180.081 55.2587 185.272 60.461 188.707 66.8019C192.351 73.5296 194.196 81.0932 194.062 88.753V92.8047C194.165 100.428 192.321 107.951 188.707 114.653C185.55 120.369 180.95 125.145 175.37 128.501H220.634V46.6972H281.99V61.3911H239.53V82.3933H275.818V96.5999H239.53V120.218H282.117V128.501H313.381C310.855 126.749 308.639 124.581 306.827 122.09C303.767 117.7 302.169 112.448 302.263 107.088H321.312C321.312 116.799 327.356 121.654 339.443 121.654C343.13 121.884 346.801 120.99 349.975 119.09C351.18 118.292 352.161 117.196 352.822 115.907C353.483 114.618 353.802 113.179 353.749 111.73C353.827 110.201 353.522 108.677 352.863 107.297C352.204 105.917 351.211 104.726 349.975 103.831C345.745 101.234 341.156 99.2814 336.358 98.036C331.017 96.4587 325.814 94.4432 320.802 92.0097C310.398 86.6074 305.195 79.3246 305.195 70.1613C305.112 65.5353 306.586 61.0168 309.378 57.3394C312.498 53.425 316.626 50.4451 321.312 48.7231C326.928 46.5711 332.899 45.5095 338.908 45.5946C344.921 45.4831 350.89 46.6451 356.427 49.0052C361.231 51.0216 365.368 54.3646 368.361 58.6472C371.199 62.8109 372.687 67.7553 372.62 72.8026H353.724C353.819 71.0364 353.509 69.2719 352.819 67.6448C352.13 66.0177 351.078 64.5713 349.746 63.417C346.551 60.9904 342.597 59.7983 338.602 60.0576C334.804 59.8298 331.03 60.8075 327.815 62.8528C326.616 63.6727 325.64 64.7792 324.972 66.0728C324.304 67.3664 323.967 68.8066 323.99 70.2638C324.036 71.757 324.476 73.2109 325.265 74.4769C326.054 75.743 327.162 76.7757 328.478 77.4697C332.626 79.8915 337.089 81.7212 341.738 82.9062C352.5 86.0347 360.337 89.8898 365.25 94.4715C367.629 96.6387 369.518 99.2939 370.789 102.258C372.061 105.222 372.685 108.426 372.62 111.653C372.738 114.881 372.108 118.093 370.781 121.034C369.453 123.976 367.464 126.567 364.97 128.603H399.626V46.6972H418.522V128.501H461.567C457.36 125.332 453.932 121.235 451.545 116.525C448.121 109.587 446.374 101.935 446.445 94.1894V88.2145C446.257 80.3436 447.844 72.5319 451.086 65.3659C453.928 59.1886 458.583 54.0341 464.423 50.5951C470.645 47.0822 477.69 45.3112 484.824 45.4663C495.722 45.4663 504.222 47.9538 510.325 52.9287C513.493 55.6401 516.09 58.9603 517.964 62.6945C519.838 66.4287 520.952 70.5017 521.24 74.6746H502.853C502.417 70.422 500.427 66.4835 497.269 63.6221C493.835 61.0964 489.632 59.854 485.385 60.1089C482.559 59.9442 479.736 60.4939 477.175 61.7078C474.613 62.9216 472.395 64.7611 470.722 67.0584C467.322 71.7084 465.622 78.6066 465.622 87.7529V93.3688C465.622 102.618 467.45 109.601 471.105 114.32C473.03 116.699 475.492 118.583 478.286 119.814C481.08 121.045 484.126 121.588 487.17 121.397C494.285 121.397 499.334 119.936 502.471 117.038V101.883H485.258V88.4965H521.367V123.654C519.715 125.511 517.819 127.133 515.731 128.475H549.571V46.6972H568.467L605.316 104.78V46.6972H624.162V129.834C679.677 138.579 723.615 188.276 723.615 246.103C723.615 309.853 670.063 363.705 606.515 363.705H471.768C468.02 363.722 464.342 364.718 461.093 366.597C457.845 368.476 455.138 371.173 453.24 374.422C451.341 377.671 450.316 381.361 450.265 385.129C450.214 388.897 451.138 392.614 452.948 395.914L505.71 491.872L617.429 690.894C623.794 702.229 633.067 711.64 644.28 718.144C655.494 724.648 668.237 728.007 681.182 727.872L711.12 727.538L753.554 727.795C766.317 727.867 778.873 724.541 789.945 718.154C801.016 711.767 810.21 702.548 816.592 691.432L1210.1 5.46212C1210.42 4.90851 1210.58 4.28051 1210.58 3.64125C1210.58 3.002 1210.42 2.37402 1210.1 1.82043C1209.78 1.26685 1209.32 0.807178 1208.77 0.487622C1208.22 0.168066 1207.6 -0.000109762 1206.96 5.37465e-08V5.37465e-08Z" fill="#B22E42"/>
</g>
<defs>
<clipPath id="clip0_400_681">
<rect width="1438" height="728" fill="white"/>
</clipPath>
</defs>
</svg>
